<?xml version="1.0" standalone="no"?>
<!DOCTYPE svg PUBLIC "-//W3C//DTD SVG 20010904//EN"
 "http://www.w3.org/TR/2001/REC-SVG-20010904/DTD/svg10.dtd">
<svg version="1.0" xmlns="http://www.w3.org/2000/svg"
 width="150.000000pt" height="150.000000pt" viewBox="0 0 150.000000 150.000000"
 preserveAspectRatio="xMidYMid meet">
<metadata>
Created by potrace 1.14, written by Peter Selinger 2001-2017
</metadata>
<g transform="translate(0.000000,150.000000) scale(0.100000,-0.100000)"
fill="#000000" stroke="none">
<path d="M579 1491 c-1 -3 -1 -9 0 -13 0 -5 -15 -8 -34 -8 -27 0 -35 -4 -35
-17 -1 -16 -2 -16 -17 2 -13 16 -15 17 -10 3 5 -14 1 -18 -19 -18 -14 0 -23
-4 -19 -9 3 -5 0 -13 -6 -17 -7 -4 -9 -3 -5 4 3 6 2 13 -4 17 -5 3 -10 -1 -10
-9 0 -9 -7 -17 -15 -17 -29 -3 -33 -4 -42 -13 -5 -5 -2 -6 6 -1 9 5 12 4 7 -3
-4 -7 -16 -12 -27 -12 -10 0 -19 -7 -19 -15 0 -9 -9 -15 -21 -15 -15 0 -19 -5
-15 -16 3 -8 2 -12 -3 -9 -5 3 -12 1 -16 -4 -3 -6 -13 -7 -23 -4 -15 6 -16 5
-2 -12 8 -10 10 -16 3 -12 -6 4 -14 3 -18 -3 -4 -6 -11 -7 -17 -4 -7 4 -8 2
-4 -4 3 -6 -3 -16 -14 -22 -11 -6 -20 -18 -20 -26 0 -9 -5 -12 -12 -8 -9 5 -8
2 1 -9 12 -15 12 -17 -3 -11 -12 4 -16 0 -16 -15 0 -12 -6 -21 -15 -21 -8 0
-16 -7 -16 -15 -3 -32 -4 -36 -16 -43 -7 -4 -14 -18 -16 -30 -2 -12 -7 -25
-12 -29 -4 -5 -5 -3 -1 4 3 6 3 14 -2 17 -5 3 -9 0 -9 -7 -3 -55 -9 -77 -20
-77 -9 0 -13 -17 -13 -54 0 -31 -5 -58 -12 -62 -6 -4 -8 -3 -4 4 3 6 3 13 -2
16 -4 2 -8 -6 -8 -20 0 -18 4 -23 15 -19 13 4 12 2 -1 -8 -14 -11 -15 -16 -5
-27 9 -10 9 -11 -1 -5 -11 6 -13 -13 -10 -103 2 -82 6 -108 15 -105 9 4 13 -9
13 -46 0 -39 4 -51 15 -51 9 0 15 -6 14 -12 -5 -42 2 -78 16 -78 9 0 15 -9 15
-24 0 -14 4 -28 10 -31 6 -4 7 1 4 12 -5 15 -4 16 5 3 6 -8 11 -25 11 -37 0
-16 4 -21 15 -17 8 4 15 1 15 -6 0 -7 8 -19 18 -26 16 -13 16 -14 -3 -8 -18 5
-18 4 -3 -6 10 -6 18 -18 18 -25 0 -8 4 -15 10 -15 5 0 7 8 4 18 -5 14 -4 15
5 2 6 -8 11 -23 11 -34 0 -12 5 -16 15 -12 14 5 20 -5 16 -27 -1 -4 7 -7 16
-5 10 2 18 -3 18 -12 0 -8 7 -15 15 -15 8 -1 14 -7 12 -15 -3 -11 0 -11 12 0
13 10 16 10 16 -3 0 -8 9 -17 21 -20 14 -4 18 -10 13 -19 -5 -9 -2 -8 11 2 11
9 16 10 11 3 -5 -9 0 -13 13 -13 12 0 21 -7 21 -15 0 -10 11 -15 38 -16 20 -1
41 -1 46 0 5 1 6 -5 3 -14 -5 -12 2 -15 34 -15 24 0 47 -7 57 -16 15 -15 16
-15 23 2 7 17 8 17 8 2 1 -10 4 -18 7 -18 4 0 13 8 20 18 13 16 14 16 8 -1 -6
-17 1 -18 126 -15 93 2 134 7 139 15 4 7 26 14 49 15 23 1 42 5 42 10 0 5 -4
7 -9 3 -5 -3 -12 -1 -15 3 -3 5 5 9 17 9 61 1 69 3 63 18 -4 12 3 15 29 15 24
0 35 5 35 15 0 8 7 15 15 15 8 0 15 7 15 15 0 8 5 15 11 15 5 0 8 -4 4 -9 -3
-5 -1 -13 5 -16 6 -4 9 -3 8 2 -4 10 38 53 52 53 6 0 10 7 10 15 0 8 7 15 15
15 8 0 15 6 15 14 0 8 7 16 15 20 8 3 15 12 15 20 0 10 6 13 15 10 11 -5 15 1
15 20 0 14 5 26 11 26 5 0 7 -6 3 -12 -4 -8 -3 -10 2 -5 9 9 11 14 13 47 1 13
6 17 16 14 12 -5 15 2 16 32 0 22 3 33 6 26 9 -22 23 -2 23 35 0 27 3 34 15
29 12 -4 15 4 15 38 0 27 5 46 13 49 10 4 14 40 15 151 1 127 -1 147 -16 156
-14 10 -14 11 -1 7 12 -4 17 1 17 19 0 13 -5 24 -10 24 -5 0 -6 -4 -3 -10 3
-5 1 -10 -4 -10 -6 0 -11 20 -11 46 0 33 -3 43 -12 38 -8 -5 -7 0 2 11 14 17
13 18 -2 12 -10 -3 -17 -3 -17 1 5 29 -3 62 -13 59 -8 -1 -14 11 -16 31 -2 20
-9 32 -18 32 -13 0 -18 15 -16 50 0 11 -3 10 -14 -4 -13 -19 -14 -18 -14 12 0
22 -5 32 -15 32 -8 0 -15 7 -15 16 0 10 -6 14 -15 10 -10 -4 -15 1 -15 14 0
13 -7 20 -20 20 -13 0 -18 5 -14 15 6 14 -12 21 -40 16 -5 -1 -3 6 5 15 12 16
12 17 -3 12 -10 -4 -18 -1 -20 10 -3 10 -15 18 -28 19 -13 1 -28 7 -34 14 -8
9 -7 10 3 4 9 -5 12 -4 7 3 -4 7 -22 12 -41 12 -19 0 -37 5 -41 12 -4 7 -3 8
4 4 7 -4 12 -2 12 3 0 6 -16 11 -35 11 -29 0 -33 3 -28 18 6 14 4 15 -9 4 -10
-8 -17 -9 -20 -3 -1 6 -29 11 -61 12 -32 1 -53 6 -46 10 7 4 21 6 31 4 10 -2
18 -1 18 4 0 8 -349 11 -351 2z m21 -11 c0 -5 -2 -10 -4 -10 -3 0 -8 5 -11 10
-3 6 -1 10 4 10 6 0 11 -4 11 -10z m70 5 c0 -7 -30 -13 -34 -7 -3 4 4 9 15 9
10 1 19 0 19 -2z m520 -125 c0 -5 -5 -10 -11 -10 -5 0 -7 5 -4 10 3 6 8 10 11
10 2 0 4 -4 4 -10z m-1165 -680 c3 -5 1 -10 -4 -10 -6 0 -11 5 -11 10 0 6 2
10 4 10 3 0 8 -4 11 -10z m60 -240 c3 -5 1 -10 -4 -10 -6 0 -11 5 -11 10 0 6
2 10 4 10 3 0 8 -4 11 -10z m835 -421 c0 -4 -10 -6 -21 -4 -32 6 -34 13 -4 13
14 0 25 -4 25 -9z"/>
</g>
</svg>
